<?xml version="1.0" standalone="no"?>
<!DOCTYPE svg PUBLIC "-//W3C//DTD SVG 20010904//EN"
 "http://www.w3.org/TR/2001/REC-SVG-20010904/DTD/svg10.dtd">
<svg version="1.0" xmlns="http://www.w3.org/2000/svg"
 width="819.000000pt" height="819.000000pt" viewBox="0 0 819.000000 819.000000"
 preserveAspectRatio="xMidYMid meet">
<metadata>
Created by potrace 1.14, written by Peter Selinger 2001-2017
</metadata>
<g transform="translate(0.000000,819.000000) scale(0.100000,-0.100000)"
fill="#000000" stroke="none">
<path d="M3805 6664 c-317 -38 -617 -128 -885 -266 -124 -63 -120 -62 -225
-127 -61 -38 -201 -136 -215 -151 -3 -3 -32 -27 -65 -54 -91 -75 -262 -251
-355 -367 -243 -301 -423 -670 -519 -1059 -17 -69 -33 -141 -36 -160 -32 -205
-35 -246 -35 -452 1 -172 3 -218 14 -312 27 -227 126 -616 157 -616 5 0 8 -10
7 -22 0 -13 6 -36 15 -52 9 -16 13 -34 10 -39 -4 -6 -1 -7 7 -2 10 6 12 4 7
-8 -3 -9 -1 -19 5 -23 7 -5 8 -2 3 6 -5 9 -4 11 4 6 6 -4 9 -12 5 -17 -3 -5
-1 -15 4 -22 6 -7 11 -16 11 -22 3 -23 13 -45 22 -45 5 0 9 -6 7 -12 -4 -21
23 -78 35 -71 6 3 7 1 3 -5 -8 -13 23 -72 37 -72 4 0 6 -4 3 -9 -8 -12 158
-259 239 -356 104 -125 214 -237 225 -230 6 4 9 2 8 -2 -6 -19 224 -223 251
-223 5 0 11 -4 13 -8 4 -10 124 -91 218 -148 90 -55 281 -148 389 -189 90 -35
125 -46 296 -91 91 -24 306 -59 425 -69 76 -6 373 -7 410 -1 14 3 61 7 105 11
44 4 82 8 85 10 3 2 33 7 65 10 64 8 268 55 350 82 91 29 328 125 384 156 163
88 225 125 326 194 71 49 107 77 195 148 54 45 248 239 295 296 28 34 58 71
68 83 34 39 131 175 175 244 47 75 210 398 215 428 2 10 11 35 19 55 42 97
107 321 122 423 4 21 8 41 10 45 4 6 8 38 27 191 18 149 14 487 -6 585 -3 11
-7 38 -10 60 -19 140 -29 184 -82 370 -24 82 -80 241 -103 290 -5 11 -29 64
-54 118 -260 566 -753 1046 -1326 1290 -113 48 -314 117 -349 120 -12 1 -21 5
-21 9 0 4 -3 7 -7 6 -7 -1 -60 9 -143 28 -48 11 -125 24 -175 30 -27 3 -61 8
-75 11 -54 12 -478 10 -585 -3z m300 -1194 c3 -5 1 -10 -4 -10 -6 0 -11 5 -11
10 0 6 2 10 4 10 3 0 8 -4 11 -10z m-1 -49 c-2 -3 -12 3 -22 13 -16 17 -16 18
5 5 12 -7 20 -15 17 -18z m1 -16 c6 0 10 -13 10 -30 -1 -16 4 -33 10 -37 6 -5
5 -12 -4 -20 -11 -11 -13 -11 -6 1 5 10 4 12 -4 7 -6 -4 -9 -12 -6 -17 4 -5 1
-9 -5 -9 -6 0 -9 14 -7 34 3 29 1 34 -14 31 -11 -2 -19 0 -19 6 0 5 4 9 9 9 6
0 8 9 6 20 -3 14 0 18 8 13 7 -4 17 -8 22 -8z m-19 -67 c4 -7 3 -8 -4 -4 -15
9 -15 1 -1 -25 7 -14 16 -18 31 -13 18 5 20 3 15 -15 -3 -11 -2 -21 3 -21 4 0
8 -11 8 -25 0 -14 -4 -25 -9 -25 -5 0 -9 -8 -8 -17 0 -11 3 -13 6 -5 2 6 9 12
14 12 5 0 4 -9 -3 -20 -13 -20 -13 -20 -25 7 -7 15 -12 24 -13 19 0 -5 -7 -3
-15 4 -10 8 -15 9 -15 2 0 -6 8 -16 18 -21 16 -10 16 -10 0 -11 -10 0 -18 5
-18 11 0 5 -5 7 -10 4 -8 -5 -7 -11 1 -21 8 -10 8 -14 0 -14 -6 0 -11 5 -11
11 0 5 -6 7 -12 3 -7 -4 -5 2 5 13 18 21 23 38 8 28 -6 -3 -6 6 -1 25 5 17 9
33 9 35 1 3 3 5 6 5 3 0 10 0 17 0 6 0 3 -7 -8 -16 -10 -8 -13 -12 -6 -9 11 6
12 3 4 -12 -9 -15 -8 -20 4 -20 8 0 13 5 11 11 -3 6 0 19 4 28 7 13 3 21 -18
32 -16 8 -23 15 -16 16 6 0 9 9 6 20 -6 21 11 28 23 8z m18 -183 c-4 -8 -11
-12 -16 -9 -6 4 -5 10 3 15 19 12 19 11 13 -6z m-2414 -2099 c0 -2 -7 -7 -16
-10 -8 -3 -12 -2 -9 4 6 10 25 14 25 6z"/>
<path d="M4083 5385 c0 -6 6 -12 12 -12 6 0 12 6 12 12 0 6 -6 12 -12 12 -6 0
-12 -6 -12 -12z"/>
<path d="M4099 5257 c0 -1 -2 -12 -3 -23 -2 -22 15 -27 31 -9 4 4 2 5 -4 1 -7
-4 -13 -3 -13 3 0 5 5 11 12 13 7 3 6 7 -5 11 -9 3 -17 5 -18 4z"/>
</g>
</svg>
